<svg width="220" height="220" viewBox="0 0 220 220" fill="none" xmlns="http://www.w3.org/2000/svg">
<g clip-path="url(#clip0_108_9)">
<path d="M110 0C80.9337 0.0847884 53.0891 11.7018 32.581 32.2998C12.0729 52.8979 0.57784 80.793 0.620234 109.86C0.662628 138.926 12.239 166.788 32.8071 187.326C53.3752 207.864 81.2536 219.4 110.32 219.4C139.387 219.4 167.265 207.864 187.833 187.326C208.401 166.788 219.978 138.926 220.02 109.86C220.062 80.793 208.567 52.8979 188.059 32.2998C167.551 11.7018 139.707 0.0847884 110.64 0L110 0Z" fill="#345D9D"/>
<path d="M112 112.46L102.31 145H153.87C154.211 144.983 154.552 145.037 154.87 145.16C155.188 145.28 155.481 145.46 155.73 145.69C155.978 145.927 156.178 146.208 156.32 146.52C156.47 146.833 156.552 147.174 156.56 147.52V148.37L152.07 163.84C151.878 164.574 151.436 165.217 150.82 165.66C150.21 166.108 149.466 166.333 148.71 166.3H69.8102L83.0302 121.3L68.2402 125.78L71.6002 115.47L86.3902 110.98L105 47.6801C105.202 46.9509 105.646 46.3123 106.26 45.8701C106.867 45.4227 107.606 45.1904 108.36 45.2101H128.36C128.701 45.2014 129.041 45.2591 129.36 45.3801C129.683 45.4972 129.978 45.6774 130.23 45.9101C130.483 46.1426 130.684 46.4254 130.82 46.7401C130.964 47.0545 131.042 47.3947 131.05 47.7401V48.6001L115.36 101.95L130.16 97.4601L127 108.2L112 112.46Z" fill="white"/>
</g>
<defs>
<clipPath id="clip0_108_9">
<rect width="220" height="220" fill="white"/>
</clipPath>
</defs>
</svg>
